G75*
%MOIN*%
%OFA0B0*%
%FSLAX25Y25*%
%IPPOS*%
%LPD*%
%AMOC8*
5,1,8,0,0,1.08239X$1,22.5*
%
%ADD10C,0.00000*%
%ADD11R,0.05543X0.05543*%
%ADD12C,0.05150*%
%ADD13R,0.03150X0.03543*%
%ADD14R,0.03937X0.03150*%
%ADD15R,0.07087X0.07087*%
%ADD16OC8,0.06000*%
%ADD17C,0.05600*%
%ADD18C,0.03200*%
%ADD19C,0.07600*%
D10*
X0001250Y0001250D02*
X0001250Y0041211D01*
X0174951Y0041211D01*
X0174951Y0001250D01*
X0001250Y0001250D01*
D11*
X0046250Y0036250D03*
X0076250Y0036250D03*
D12*
X0116250Y0036250D03*
X0116250Y0006250D03*
D13*
X0130010Y0017313D03*
X0137490Y0017313D03*
X0133750Y0025187D03*
D14*
X0116250Y0024990D03*
X0116250Y0017510D03*
D15*
X0021250Y0011250D03*
X0021250Y0031250D03*
D16*
X0166250Y0026250D03*
X0166250Y0016250D03*
D17*
X0156250Y0006250D03*
X0146250Y0006250D03*
X0136250Y0006250D03*
X0136250Y0036250D03*
X0146250Y0036250D03*
X0156250Y0036250D03*
D18*
X0156250Y0033750D01*
X0147687Y0025187D01*
X0133750Y0025187D01*
X0116250Y0024990D02*
X0116250Y0036250D01*
X0136250Y0036250D01*
X0151250Y0018750D02*
X0158750Y0026250D01*
X0166250Y0026250D01*
X0151250Y0018750D02*
X0138927Y0018750D01*
X0137490Y0017313D01*
X0130010Y0017313D02*
X0130010Y0017510D01*
X0116250Y0017510D01*
X0116250Y0006250D01*
X0146250Y0006250D02*
X0153750Y0013750D01*
X0163750Y0013750D01*
X0166250Y0016250D01*
D19*
X0076250Y0026250D02*
X0076250Y0036250D01*
X0046250Y0036250D02*
X0041250Y0031250D01*
X0021250Y0031250D01*
X0061250Y0011250D02*
X0076250Y0026250D01*
X0061250Y0011250D02*
X0021250Y0011250D01*
M02*
