%
M48
M72
T01C0.02362
T02C0.03600
%
T01
X91368Y36000
X81368Y46000
X71368Y51000
X61368Y51000
X51368Y56000
X43868Y61000
X141368Y71000
X161368Y16000
T02
X136368Y6000
X146368Y6000
X156368Y6000
X151368Y31000
X141368Y31000
X161368Y31000
X161368Y41000
X151368Y41000
X141368Y41000
X141368Y51000
X151368Y51000
X161368Y51000
X161368Y71000
X151368Y71000
X141368Y71000
X131368Y71000
X121368Y71000
X111368Y71000
M30
