G75*
%MOIN*%
%OFA0B0*%
%FSLAX25Y25*%
%IPPOS*%
%LPD*%
%AMOC8*
5,1,8,0,0,1.08239X$1,22.5*
%
%ADD10C,0.00000*%
%ADD11C,0.00400*%
%ADD12C,0.00500*%
%ADD13C,0.00600*%
D10*
X0036368Y0001000D02*
X0036368Y0080961D01*
X0167569Y0080961D01*
X0167569Y0001000D01*
X0036368Y0001000D01*
D11*
X0041246Y0006200D02*
X0041246Y0010804D01*
X0043548Y0010804D01*
X0044316Y0010037D01*
X0044316Y0008502D01*
X0043548Y0007735D01*
X0041246Y0007735D01*
X0042781Y0007735D02*
X0044316Y0006200D01*
X0045850Y0006967D02*
X0045850Y0008502D01*
X0046618Y0009269D01*
X0048152Y0009269D01*
X0048920Y0008502D01*
X0048920Y0007735D01*
X0045850Y0007735D01*
X0045850Y0006967D02*
X0046618Y0006200D01*
X0048152Y0006200D01*
X0050454Y0009269D02*
X0051989Y0006200D01*
X0053524Y0009269D01*
X0055058Y0009269D02*
X0056593Y0010804D01*
X0056593Y0006200D01*
X0055058Y0006200D02*
X0058128Y0006200D01*
X0059662Y0006200D02*
X0059662Y0006967D01*
X0060429Y0006967D01*
X0060429Y0006200D01*
X0059662Y0006200D01*
X0061964Y0006967D02*
X0062731Y0006200D01*
X0064266Y0006200D01*
X0065033Y0006967D01*
X0065033Y0007735D01*
X0064266Y0008502D01*
X0063499Y0008502D01*
X0064266Y0008502D02*
X0065033Y0009269D01*
X0065033Y0010037D01*
X0064266Y0010804D01*
X0062731Y0010804D01*
X0061964Y0010037D01*
X0122360Y0026200D02*
X0122360Y0030804D01*
X0124662Y0030804D01*
X0125430Y0030037D01*
X0125430Y0028502D01*
X0124662Y0027735D01*
X0122360Y0027735D01*
X0123895Y0027735D02*
X0125430Y0026200D01*
X0129266Y0026200D02*
X0129266Y0030804D01*
X0126964Y0028502D01*
X0130033Y0028502D01*
X0129266Y0036200D02*
X0127731Y0036200D01*
X0126964Y0036967D01*
X0126964Y0038502D02*
X0128499Y0039269D01*
X0129266Y0039269D01*
X0130033Y0038502D01*
X0130033Y0036967D01*
X0129266Y0036200D01*
X0126964Y0038502D02*
X0126964Y0040804D01*
X0130033Y0040804D01*
X0125430Y0040037D02*
X0125430Y0038502D01*
X0124662Y0037735D01*
X0122360Y0037735D01*
X0123895Y0037735D02*
X0125430Y0036200D01*
X0122360Y0036200D02*
X0122360Y0040804D01*
X0124662Y0040804D01*
X0125430Y0040037D01*
X0125430Y0046200D02*
X0123895Y0047735D01*
X0124662Y0047735D02*
X0122360Y0047735D01*
X0124662Y0047735D02*
X0125430Y0048502D01*
X0125430Y0050037D01*
X0124662Y0050804D01*
X0122360Y0050804D01*
X0122360Y0046200D01*
X0126964Y0046200D02*
X0126964Y0046967D01*
X0130033Y0050037D01*
X0130033Y0050804D01*
X0126964Y0050804D01*
X0127731Y0056200D02*
X0129266Y0056200D01*
X0130033Y0056967D01*
X0130033Y0057735D01*
X0129266Y0058502D01*
X0126964Y0058502D01*
X0126964Y0056967D01*
X0127731Y0056200D01*
X0125430Y0056200D02*
X0123895Y0057735D01*
X0124662Y0057735D02*
X0122360Y0057735D01*
X0124662Y0057735D02*
X0125430Y0058502D01*
X0125430Y0060037D01*
X0124662Y0060804D01*
X0122360Y0060804D01*
X0122360Y0056200D01*
X0126964Y0058502D02*
X0128499Y0060037D01*
X0130033Y0060804D01*
D12*
X0009124Y0072496D02*
X0009124Y0009504D01*
X0103612Y0009504D01*
X0103612Y0072496D01*
X0009124Y0072496D01*
D13*
X0036252Y0044205D02*
X0036252Y0037800D01*
X0040522Y0037800D01*
X0042697Y0038868D02*
X0043765Y0037800D01*
X0045900Y0037800D01*
X0046967Y0038868D01*
X0046967Y0039935D01*
X0045900Y0041003D01*
X0043765Y0041003D01*
X0042697Y0042070D01*
X0042697Y0043138D01*
X0043765Y0044205D01*
X0045900Y0044205D01*
X0046967Y0043138D01*
X0049143Y0044205D02*
X0052345Y0044205D01*
X0053413Y0043138D01*
X0053413Y0041003D01*
X0052345Y0039935D01*
X0049143Y0039935D01*
X0049143Y0037800D02*
X0049143Y0044205D01*
X0055588Y0043138D02*
X0055588Y0042070D01*
X0056656Y0041003D01*
X0058791Y0041003D01*
X0059858Y0039935D01*
X0059858Y0038868D01*
X0058791Y0037800D01*
X0056656Y0037800D01*
X0055588Y0038868D01*
X0055588Y0039935D01*
X0056656Y0041003D01*
X0058791Y0041003D02*
X0059858Y0042070D01*
X0059858Y0043138D01*
X0058791Y0044205D01*
X0056656Y0044205D01*
X0055588Y0043138D01*
X0062034Y0043138D02*
X0063101Y0044205D01*
X0065236Y0044205D01*
X0066304Y0043138D01*
X0066304Y0042070D01*
X0062034Y0037800D01*
X0066304Y0037800D01*
X0068479Y0038868D02*
X0069547Y0037800D01*
X0071682Y0037800D01*
X0072749Y0038868D01*
X0072749Y0039935D01*
X0071682Y0041003D01*
X0068479Y0041003D01*
X0068479Y0038868D01*
X0068479Y0041003D02*
X0070614Y0043138D01*
X0072749Y0044205D01*
X0074925Y0041003D02*
X0077060Y0043138D01*
X0079195Y0044205D01*
X0078127Y0041003D02*
X0074925Y0041003D01*
X0074925Y0038868D01*
X0075992Y0037800D01*
X0078127Y0037800D01*
X0079195Y0038868D01*
X0079195Y0039935D01*
X0078127Y0041003D01*
X0081370Y0041003D02*
X0085640Y0041003D01*
X0087816Y0042070D02*
X0089951Y0044205D01*
X0089951Y0037800D01*
X0087816Y0037800D02*
X0092086Y0037800D01*
X0094261Y0037800D02*
X0098531Y0042070D01*
X0098531Y0043138D01*
X0097464Y0044205D01*
X0095329Y0044205D01*
X0094261Y0043138D01*
X0094261Y0037800D02*
X0098531Y0037800D01*
X0040522Y0044205D02*
X0036252Y0044205D01*
X0036252Y0041003D02*
X0038387Y0041003D01*
M02*
