G75*
%MOIN*%
%OFA0B0*%
%FSLAX25Y25*%
%IPPOS*%
%LPD*%
%AMOC8*
5,1,8,0,0,1.08239X$1,22.5*
%
%ADD10C,0.00000*%
%ADD11C,0.00600*%
%ADD12C,0.00800*%
%ADD13C,0.00100*%
%ADD14C,0.00400*%
D10*
X0001250Y0001250D02*
X0001250Y0081211D01*
X0174951Y0081211D01*
X0174951Y0001250D01*
X0001250Y0001250D01*
D11*
X0009180Y0021550D02*
X0009180Y0027955D01*
X0013450Y0027955D02*
X0009180Y0021550D01*
X0013450Y0021550D02*
X0013450Y0027955D01*
X0013450Y0056550D02*
X0009180Y0056550D01*
X0013450Y0056550D02*
X0013450Y0062955D01*
D12*
X0117250Y0054150D02*
X0117250Y0028350D01*
X0130250Y0028350D01*
X0130250Y0054150D01*
X0117250Y0054150D01*
X0118829Y0058514D02*
X0117648Y0060089D01*
X0117648Y0064813D01*
X0117648Y0060089D01*
X0118829Y0058514D02*
X0128474Y0058514D01*
X0129852Y0060089D01*
X0129852Y0064813D01*
X0128813Y0066352D02*
X0118589Y0066352D01*
X0117648Y0072293D02*
X0117648Y0078986D01*
X0130049Y0078986D01*
X0130049Y0072293D01*
X0128671Y0023986D02*
X0119026Y0023986D01*
X0117648Y0022411D01*
X0117648Y0017687D01*
X0118687Y0016148D02*
X0128911Y0016148D01*
X0129852Y0017687D02*
X0129852Y0022411D01*
X0129852Y0017687D01*
X0129852Y0022411D02*
X0128671Y0023986D01*
X0129852Y0010207D02*
X0129852Y0003514D01*
X0117451Y0003514D01*
X0117451Y0010207D01*
D13*
X0105951Y0041603D02*
X0104700Y0041603D01*
X0104450Y0041854D01*
X0104450Y0042354D01*
X0104700Y0042604D01*
X0105951Y0042604D01*
X0105451Y0043077D02*
X0105951Y0043577D01*
X0104450Y0043577D01*
X0104450Y0043077D02*
X0104450Y0044078D01*
D14*
X0040258Y0048950D02*
X0040258Y0053554D01*
X0037189Y0053554D01*
X0035654Y0052019D02*
X0034119Y0053554D01*
X0034119Y0048950D01*
X0032585Y0048950D02*
X0035654Y0048950D01*
X0038723Y0051252D02*
X0040258Y0051252D01*
M02*
